<svg width="26" height="27" viewBox="0 0 26 27" fill="none" xmlns="http://www.w3.org/2000/svg">
<path d="M13.0079 26.4558C20.0428 26.4558 25.7457 20.7326 25.7457 13.6727C25.7457 6.61282 20.0428 0.889648 13.0079 0.889648C5.97295 0.889648 0.27002 6.61282 0.27002 13.6727C0.27002 20.7326 5.97295 26.4558 13.0079 26.4558Z" fill="#FFFFFF"/>
<path d="M13.0082 0.0108497C5.83908 0.0108497 0 5.87066 0 13.0652C0 13.2714 0.0108159 13.4776 0.0324421 13.6837V13.8682C0.0540684 14.0093 0.173011 14.1178 0.313581 14.1178C0.454152 14.1178 0.573096 14.0093 0.583909 13.8682C0.767732 10.8624 2.00042 8.06266 3.84947 5.88151C3.66564 6.50005 3.56833 7.15114 3.56833 7.82393C3.56833 11.6545 6.66088 14.7472 10.4671 14.7472C14.2733 14.7472 17.3659 11.6437 17.3659 7.82393C17.3659 4.88317 15.5384 2.37648 12.9649 1.36729C12.9757 1.36729 12.9866 1.36729 12.9974 1.36729C19.3122 1.36729 25.0107 7.09688 25.4216 13.8682C25.4216 14.0093 25.5514 14.1178 25.692 14.1178C25.8325 14.1178 25.9515 14.0093 25.9623 13.8682V13.662C25.9839 13.4559 26.0055 13.2605 26.0055 13.0544C26.0055 5.85981 20.1665 0 12.9974 0L13.0082 0.0108497Z" fill="#1A0F2E"/>
</svg>
