<svg width="114" height="185" viewBox="0 0 114 185" fill="none" xmlns="http://www.w3.org/2000/svg">
<path d="M61.2984 0C71.9859 0 78.4341 7.16462 80.3864 9.72421C92.6023 11.6355 99.5191 24.4111 99.6418 32.8164C99.7088 37.4997 101.817 40.6629 105.008 45.4467C106.023 46.9668 107.172 48.6993 108.344 50.6218C113.308 58.7924 112.706 69.3661 112.65 70.1149C112.516 72.7081 109.772 72.9428 108.455 73.0546C108.042 73.0881 107.351 73.144 106.927 73.2558C107.217 73.4458 107.719 73.6805 108.054 73.837C109.325 74.4182 111.456 75.3906 111.356 77.8272C111.266 80.0739 109.526 81.0798 108.489 81.6722C107.953 81.9852 107.563 82.2199 107.496 82.3876C107.674 82.8682 109.013 83.7959 109.593 84.1983C110.898 85.1036 112.371 86.1208 112.181 87.898C111.969 89.8093 110.474 90.5581 109.671 90.9605C108.846 91.3741 108.678 91.4635 108.645 92.4583C108.611 93.2966 108.611 93.3525 110.162 93.7772C111.4 94.1237 113.989 94.839 114 97.7451C114 98.9076 113.632 104.25 113.074 112.264C112.683 117.842 112.237 124.157 112.237 125.085C112.237 127.275 111.512 128.147 110.095 129.075C109.693 129.343 109.236 129.645 108.6 130.204C108.344 130.439 108.277 130.562 108.489 131.802C108.678 132.898 108.991 134.731 107.574 136.15C106.983 136.743 106.202 137.793 106.202 140.208C106.202 142.622 104.963 143.583 104.227 144.108C104.316 144.377 104.461 144.712 104.606 145.036C105.03 145.997 105.555 147.193 105.61 148.725C105.867 154.861 101.851 166.977 89.7464 175.248C82.997 179.864 75.6116 180.826 70.6026 180.826C68.4606 180.826 66.7649 180.647 65.7497 180.502C63.8978 181.776 59.2011 184.436 52.4293 184.436H52.2508C45.2113 184.391 40.7712 181.776 39.1647 180.625C36.5542 180.49 29.5147 180.043 27.2054 179.16C17.9905 175.639 12.4013 169.917 9.40033 166.843C8.90946 166.34 8.36281 165.781 8.0616 165.513C8.03929 165.513 8.00582 165.513 7.97235 165.513C7.5038 165.513 6.8679 165.613 6.29894 165.703C5.70767 165.792 5.19449 165.882 4.72593 165.882C3.55454 165.882 2.90749 165.334 2.57281 164.876C2.12657 164.261 1.99269 163.49 2.22697 162.752C3.19755 159.589 3.19755 153.676 3.19755 151.441V151.307C3.19755 148.881 5.22796 147.864 6.57784 147.193C8.03929 146.467 8.38513 146.165 8.42975 145.606C8.49669 144.79 8.31819 144.634 7.58189 143.963C6.80096 143.259 5.61842 142.197 5.40645 140.23C5.12755 137.67 6.9683 136.351 7.95004 135.692C7.76038 135.692 7.52611 135.681 7.25836 135.681H6.89021H6.5109C5.54032 135.681 2.59512 135.681 2.31622 132.998C2.13772 131.288 3.30911 129.936 4.33547 128.74C4.52512 128.516 4.77055 128.226 4.99368 127.946C4.79287 127.924 4.59206 127.901 4.43587 127.879C3.17524 127.734 0.83246 127.477 0.430841 125.275C0.430841 125.219 0.408528 125.163 0.408528 125.107C-0.417021 117.596 0.230033 110.387 0.754368 104.597C1.07789 100.998 1.3568 97.8904 1.25639 95.342C0.843618 84.0418 4.82634 74.6976 5.99772 72.1939C5.79692 70.2938 5.35067 64.7387 6.07582 57.4288C7.22489 45.8268 15.1011 37.8909 17.8009 35.499C17.812 32.347 18.5372 23.5058 25.4205 14.441C31.1993 6.81813 38.8858 5.67805 42.9466 5.67805C44.2965 5.67805 45.4121 5.78982 46.2042 5.91277C48.19 4.10205 53.3218 0.190013 60.7183 0C60.9079 0 61.1087 0 61.2984 0Z" fill="#FFFFFF"/>
<path d="M79.1484 11.8143C79.1484 11.8143 79.1484 11.8032 79.1372 11.792L79.1484 11.8143Z" fill="#7C3AED"/>
<path d="M93.8408 21.7734C94.1755 22.3211 94.4879 22.8688 94.7668 23.4277C94.4767 22.8688 94.1643 22.3211 93.8408 21.7734Z" fill="#7C3AED"/>
<path d="M79.0481 11.6689C79.0481 11.6689 79.0932 11.7253 79.1044 11.7479C79.0932 11.7253 79.0819 11.7141 79.0481 11.6689Z" fill="#7C3AED"/>
<path d="M76.7721 8.9863C76.6717 8.88571 76.5713 8.78511 76.4597 8.67334C76.5713 8.77394 76.6717 8.87453 76.7721 8.9863Z" fill="#7C3AED"/>
<path d="M101.539 44.2285C102.732 46.0839 104.116 48.0623 105.566 50.3648C104.116 48.0735 102.732 46.0951 101.539 44.2285Z" fill="#7C3AED"/>
<path d="M77.1848 9.41162C77.2741 9.50104 77.3522 9.59046 77.4414 9.67988C77.3633 9.59046 77.2741 9.50104 77.1848 9.41162Z" fill="#7C3AED"/>
<path d="M77.9434 10.25C78.0103 10.3282 78.0772 10.4065 78.133 10.4847C78.0661 10.4065 78.0103 10.3394 77.9434 10.25Z" fill="#7C3AED"/>
<path d="M78.8359 11.3784C78.8359 11.3784 78.8923 11.4574 78.9261 11.4912C78.8923 11.4461 78.881 11.4235 78.8359 11.3784Z" fill="#7C3AED"/>
<path d="M107.641 76.0947C107.92 76.2289 108.188 76.3742 108.411 76.5306C108.188 76.3742 107.92 76.24 107.641 76.0947Z" fill="#7C3AED"/>
<path d="M111.267 96.6163C110.843 96.2698 110.218 96.1021 109.537 95.9121C110.207 96.1021 110.843 96.2698 111.267 96.6163Z" fill="#7C3AED"/>
<path d="M109.939 87.4287C109.727 86.9034 108.634 86.2663 107.552 85.4839C108.622 86.2663 109.716 86.9034 109.939 87.4287Z" fill="#7C3AED"/>
<path d="M105.499 74.9658C106.113 75.4353 106.938 75.7594 107.641 76.0947C106.938 75.7594 106.124 75.4353 105.499 74.9658Z" fill="#7C3AED"/>
<path d="M107.195 94.7944C107.686 95.2974 108.366 95.5657 109.036 95.7669C108.355 95.5657 107.686 95.2974 107.195 94.7944Z" fill="#7C3AED"/>
<path d="M106.604 93.833C106.737 94.2242 106.938 94.5484 107.184 94.7943C106.938 94.5372 106.737 94.2242 106.604 93.833Z" fill="#7C3AED"/>
<path d="M105.611 83.5615C105.778 83.8521 106.001 84.1316 106.258 84.3886C106.001 84.1204 105.778 83.8521 105.611 83.5615Z" fill="#7C3AED"/>
<path d="M7.61553 126.996C8.17333 128.851 4.35795 131.165 4.52529 132.797C4.59223 133.412 5.44009 133.468 6.49992 133.468C6.74535 133.468 6.99079 133.468 7.24738 133.468C8.85385 133.468 10.6054 133.579 10.8173 135.278C11.0962 137.581 7.33663 137.469 7.61553 140.006C7.89443 142.544 10.9177 142.376 10.65 145.807C10.3711 149.351 5.42893 149.015 5.42893 151.318C5.42893 152.212 5.42894 153.699 5.37315 155.397C10.0364 158.952 19.9318 166.172 26.6701 168.743C26.6701 168.743 21.4268 161.701 22.7097 155.04C22.7097 155.04 26.1569 168.363 32.806 170.543C35.6173 170.923 40.0909 174.254 45.9701 173.616C51.8494 172.979 54.7053 172.812 61.689 167.212C64.2438 165.166 69.1078 171.314 79.3268 164.395C89.5569 157.476 88.1624 145.874 89.8358 143.404C91.5092 140.934 97.7232 129.679 98.0132 112.98C98.1136 107.346 97.2211 100.763 97.2211 92.2572C97.2211 83.7513 95.7374 83.3489 96.6299 76.4413C97.5223 69.5226 96.8307 61.1285 93.5731 49.9736C90.3155 38.8075 87.56 41.5795 88.5417 31.7994C89.5234 22.0193 78.0885 19.3591 76.7163 15.4023C75.3329 11.4567 74.8309 7.43294 70.5135 4.45979C70.6362 4.51567 70.7478 4.58274 70.8705 4.6498C68.26 3.28617 65.0582 2.26904 61.2763 2.26904C61.0978 2.26904 60.9304 2.26904 60.7519 2.26904C52.1394 2.48141 46.8961 8.37183 46.8961 8.37183C46.8961 8.37183 45.3119 7.95827 42.9134 7.95827C38.7745 7.95827 32.2147 9.17659 27.161 15.8382C19.1844 26.356 20.0211 36.5609 20.0211 36.5609C20.0211 36.5609 9.54553 44.765 8.26258 57.7082C7.3924 66.46 8.26258 72.6411 8.26258 72.6411C8.26258 72.6411 2.99691 82.8012 3.45431 95.3197C3.7109 102.373 1.31235 113.136 2.59529 124.917C2.82957 126.18 7.04657 125.174 7.60437 127.03L7.61553 126.996Z" fill="#7C3AED"/>
<path d="M78.4009 10.8193C78.4567 10.8864 78.5013 10.9535 78.5459 11.0093C78.5013 10.9535 78.4455 10.8864 78.4009 10.8193Z" fill="#7C3AED"/>
<path d="M4.56982 162.618C4.59214 162.529 4.61445 162.44 4.6256 162.35C4.60329 162.44 4.58098 162.529 4.56982 162.618Z" fill="#7C3AED"/>
<path d="M103.39 148.814C103.636 154.895 99.2293 166.061 88.5083 173.393C99.2404 166.061 103.647 154.895 103.39 148.814C103.335 147.484 102.777 146.445 102.364 145.461C102.777 146.445 103.346 147.484 103.39 148.814Z" fill="#7C3AED"/>
<path d="M111.445 103.647C111.378 104.642 111.3 105.715 111.222 106.844C111.3 105.726 111.378 104.653 111.445 103.647Z" fill="#7C3AED"/>
<path d="M108.79 127.265C108.545 127.432 108.243 127.622 107.897 127.891C108.243 127.622 108.545 127.421 108.79 127.265Z" fill="#7C3AED"/>
<path d="M109.236 126.974C109.114 127.063 108.957 127.164 108.79 127.264C108.957 127.152 109.102 127.063 109.236 126.974Z" fill="#7C3AED"/>
<path d="M5.26172 157.544C5.26172 157.466 5.26172 157.387 5.27287 157.309C5.27287 157.387 5.27287 157.466 5.26172 157.544Z" fill="#7C3AED"/>
<path d="M73.1465 5.96924C73.3027 6.06983 73.4589 6.18161 73.6039 6.2822C73.4589 6.17043 73.3027 6.06983 73.1465 5.96924Z" fill="#7C3AED"/>
<path d="M74.418 6.89648C74.5518 7.00826 74.6969 7.10885 74.8196 7.22062C74.6857 7.10885 74.5518 7.00826 74.418 6.89648Z" fill="#7C3AED"/>
<path d="M71.8298 5.13086C71.986 5.22028 72.1534 5.32087 72.3095 5.42147C72.1534 5.32087 71.9972 5.23145 71.8298 5.13086Z" fill="#7C3AED"/>
<path d="M5.06079 159.7C5.06079 159.7 5.07195 159.6 5.0831 159.555C5.0831 159.611 5.07195 159.656 5.06079 159.7Z" fill="#7C3AED"/>
<path d="M5.18335 158.55C5.18335 158.55 5.18335 158.449 5.1945 158.404C5.1945 158.449 5.19451 158.505 5.18335 158.55Z" fill="#7C3AED"/>
<path d="M61.2987 2.23545C72.968 2.23545 79.1485 11.8144 79.1485 11.8144C91.2193 13.0774 97.3106 25.8083 97.4221 32.85C97.5225 39.9028 101.728 44.0049 106.447 51.7842C111.166 59.5636 110.441 69.9808 110.441 69.9808C110.374 71.5568 104.874 69.8355 104.573 72.8981C104.272 75.9718 109.225 75.6365 109.147 77.7267C109.069 79.8168 105.588 79.6268 105.298 82.1528C104.986 84.8466 110.118 86.5232 109.995 87.6521C109.794 89.4181 106.581 88.5127 106.447 92.38C106.28 97.0633 111.791 94.9732 111.802 97.7563C111.802 100.003 110.04 122.995 110.04 125.085C110.04 127.175 109.393 126.527 107.15 128.538C104.908 130.55 107.396 133.199 106.023 134.563C104.662 135.927 104.004 137.76 104.004 140.208C104.004 142.655 101.94 142.13 101.94 143.717C101.94 145.304 103.335 146.69 103.413 148.825C103.658 154.906 99.2517 166.072 88.5307 173.404C82.2275 177.707 75.2996 178.601 70.6364 178.601C67.3677 178.601 65.2145 178.165 65.2145 178.165C65.2145 178.165 60.4509 182.223 52.4631 182.223C52.4074 182.223 52.3516 182.223 52.2958 182.223C44.2076 182.167 39.9906 178.456 39.9906 178.456C39.9906 178.456 30.3853 178.009 28.0202 177.104C16.1166 172.566 10.3824 163.937 8.92097 163.423C8.66438 163.333 8.34086 163.3 7.98386 163.3C6.84594 163.3 5.41797 163.669 4.7486 163.669C4.4697 163.669 4.32467 163.602 4.36929 163.434C5.46259 159.891 5.44028 153.643 5.44028 151.329C5.44028 149.015 10.3824 149.362 10.6613 145.819C10.9291 142.398 7.90577 142.555 7.62687 140.018C7.34797 137.48 11.1076 137.592 10.8287 135.29C10.6278 133.602 8.86519 133.479 7.25872 133.479C7.00213 133.479 6.74554 133.479 6.51126 133.479C5.45143 133.479 4.60357 133.423 4.53663 132.808C4.36929 131.176 8.18467 128.874 7.62687 127.007C7.06906 125.152 2.85207 126.158 2.61779 124.895C1.33484 113.103 3.73339 102.35 3.47681 95.2973C3.01941 82.79 8.28508 72.6186 8.28508 72.6186C8.28508 72.6186 7.4149 66.4264 8.28508 57.6858C9.56802 44.7537 20.0436 36.5385 20.0436 36.5385C20.0436 36.5385 19.2069 26.3336 27.1835 15.8158C32.2372 9.15417 38.7969 7.93585 42.9358 7.93585C45.3344 7.93585 46.9186 8.34941 46.9186 8.34941C46.9186 8.34941 52.1731 2.459 60.7744 2.24663C60.9529 2.24663 61.1202 2.24663 61.2987 2.24663M61.2987 0C61.1091 0 60.9194 0 60.7186 0C53.3222 0.178836 48.1904 4.09088 46.1823 5.92395C45.3902 5.801 44.2746 5.68922 42.9247 5.68922C38.8639 5.68922 31.1773 6.82931 25.3985 14.4522C18.5152 23.517 17.7901 32.3582 17.7789 35.5102C15.0903 37.9021 7.20294 45.8379 6.05386 57.4399C5.32872 64.761 5.77496 70.305 5.97577 72.2051C4.80438 74.6976 0.821661 84.053 1.23444 95.3532C1.32368 97.9016 1.04478 101.009 0.732411 104.608C0.219232 110.398 -0.427818 117.596 0.386576 125.118C0.386576 125.174 0.397728 125.23 0.408884 125.286C0.821659 127.488 3.15328 127.756 4.41392 127.89C4.5701 127.913 4.77091 127.935 4.97172 127.957C4.7486 128.237 4.50316 128.527 4.31351 128.751C3.28715 129.947 2.12692 131.299 2.29426 133.009C2.57317 135.681 5.51837 135.681 6.48895 135.681H6.86825H7.23641C7.51531 135.681 7.73843 135.681 7.92808 135.692C6.94635 136.351 5.09444 137.659 5.3845 140.23C5.59646 142.186 6.779 143.259 7.55993 143.963C8.29623 144.634 8.47473 144.79 8.40779 145.606C8.36317 146.165 8.01733 146.456 6.55588 147.193C5.206 147.864 3.17559 148.881 3.17559 151.307V151.441C3.17559 153.665 3.17559 159.589 2.20501 162.752C1.98189 163.49 2.10461 164.272 2.55085 164.876C2.88554 165.334 3.53259 165.882 4.70398 165.882C5.17253 165.882 5.68571 165.803 6.27698 165.703C6.84594 165.613 7.48184 165.513 7.95039 165.513C7.98386 165.513 8.01733 165.513 8.03964 165.513C8.34085 165.781 8.8875 166.34 9.37837 166.843C12.3794 169.917 17.9797 175.651 27.1835 179.16C29.4928 180.043 36.5323 180.479 39.1428 180.625C40.7493 181.765 45.1894 184.38 52.2289 184.436H52.4074C59.1791 184.436 63.8758 181.776 65.7277 180.502C66.7318 180.647 68.4386 180.826 70.5806 180.826C75.5897 180.826 82.975 179.853 89.7244 175.248C101.818 166.977 105.834 154.861 105.588 148.725C105.533 147.182 104.997 145.997 104.584 145.036C104.439 144.712 104.294 144.388 104.205 144.108C104.941 143.572 106.18 142.532 106.18 140.208C106.18 137.883 106.961 136.731 107.552 136.15C108.969 134.731 108.656 132.898 108.467 131.802C108.255 130.562 108.322 130.439 108.578 130.204C109.214 129.634 109.671 129.343 110.073 129.075C111.49 128.147 112.215 127.275 112.215 125.085C112.215 124.157 112.661 117.831 113.052 112.264C113.621 104.25 113.989 98.9076 113.978 97.7451C113.967 94.8502 111.378 94.1237 110.14 93.7772C108.589 93.3413 108.601 93.2966 108.623 92.4583C108.656 91.4635 108.835 91.3741 109.649 90.9605C110.452 90.5581 111.947 89.8093 112.159 87.898C112.36 86.132 110.876 85.1036 109.571 84.1983C108.991 83.7959 107.652 82.8682 107.474 82.3876C107.53 82.2199 107.931 81.974 108.467 81.6722C109.504 81.0687 111.245 80.0739 111.334 77.8272C111.423 75.3906 109.303 74.4182 108.032 73.837C107.697 73.6805 107.195 73.4569 106.905 73.2558C107.329 73.1552 108.02 73.0881 108.433 73.0546C109.75 72.9428 112.494 72.7192 112.628 70.1149C112.672 69.3661 113.275 58.8036 108.322 50.6218C107.15 48.6993 106.001 46.978 104.986 45.4467C101.795 40.6629 99.6868 37.4997 99.6199 32.8164C99.4972 24.4 92.5804 11.6355 80.3645 9.72421C78.4122 7.16462 71.964 0 61.2653 0L61.2987 0Z" fill="#1A0F2E"/>
<path d="M106.425 92.3689C106.559 88.5127 109.772 89.4069 109.973 87.6409C110.096 86.512 104.964 84.8354 105.276 82.1417C105.566 79.6268 109.047 79.8056 109.125 77.7155C109.203 75.6254 104.25 75.9607 104.551 72.8869C104.852 69.8132 110.352 71.5457 110.419 69.9697C110.419 69.9697 111.156 59.5525 106.425 51.7731C101.695 43.9937 97.5005 39.8917 97.4001 32.8388C97.2997 25.786 91.2085 13.0662 79.1265 11.8032C79.1265 11.8032 76.1813 7.24289 70.5252 4.41504C74.8426 7.38819 75.3446 11.412 76.7279 15.3576C78.1113 19.3031 89.5463 21.9745 88.5534 31.7546C87.5605 41.5347 90.3272 38.7628 93.5848 49.9288C96.8423 61.0949 97.5229 69.489 96.6415 76.3966C95.749 83.3153 97.2328 83.7065 97.2328 92.2124C97.2328 100.718 98.1253 107.313 98.0249 112.935C97.7348 129.634 91.5209 140.889 89.8475 143.36C88.1741 145.83 89.5574 157.432 79.3385 164.35C69.1083 171.269 64.2554 165.122 61.7007 167.167C54.7058 172.767 51.861 172.935 45.9818 173.572C40.1025 174.209 35.6289 170.878 32.8176 170.498C26.1686 168.318 22.7214 154.995 22.7214 154.995C21.4384 161.657 26.6818 168.698 26.6818 168.698C19.9435 166.128 10.0481 158.907 5.38482 155.353C5.29557 158.024 5.03898 161.21 4.36962 163.389C4.31384 163.568 4.47002 163.624 4.74893 163.624C5.42945 163.624 6.85742 163.255 7.98419 163.255C8.33002 163.255 8.65355 163.289 8.9213 163.378C10.3827 163.881 16.117 172.51 28.0205 177.059C30.3744 177.964 39.991 178.411 39.991 178.411C39.991 178.411 44.208 182.122 52.2961 182.178C52.3519 182.178 52.4077 182.178 52.4635 182.178C60.4512 182.178 65.2149 178.121 65.2149 178.121C65.2149 178.121 67.3568 178.557 70.6367 178.557C75.2888 178.557 82.2279 177.663 88.5311 173.359C99.2632 166.027 103.67 154.861 103.413 148.781C103.335 146.657 101.941 145.26 101.941 143.672C101.941 142.085 104.005 142.611 104.005 140.163C104.005 137.715 104.663 135.893 106.024 134.518C107.385 133.155 104.897 130.495 107.151 128.494C109.393 126.482 110.04 127.13 110.04 125.04C110.04 122.95 111.814 99.9582 111.803 97.7116C111.791 94.9285 106.28 97.0186 106.448 92.3354L106.425 92.3689Z" fill="#4C1D95"/>
<path d="M104.663 83.561C104.663 85.2935 104.964 89.2838 107.641 90.5356C108.154 89.3173 109.114 88.8255 109.839 88.4678C110.52 88.1213 110.776 87.9537 110.821 87.5848C110.743 87.4172 109.984 86.8807 109.426 86.5006C107.942 85.4723 105.901 84.064 106.135 82.0856C106.325 80.4984 107.541 79.8055 108.511 79.2354C109.404 78.7213 109.951 78.3748 109.984 77.7041C109.984 77.5924 109.962 77.5029 109.906 77.4023C106.726 77.6035 104.663 80.0178 104.663 83.561Z" fill="#2FB9A1"/>
<path d="M48.0455 7.3546C45.29 9.75771 42.6014 12.5744 41.1288 16.0058C41.1064 16.0729 41.0172 16.1176 40.9503 16.084C40.8833 16.0617 40.8498 15.9834 40.861 15.9164C41.3853 14.061 42.3113 12.3397 43.36 10.7301C44.4421 9.10943 45.6135 7.61168 46.9634 6.18099C47.2646 5.85685 47.7666 5.84567 48.0901 6.14746C48.436 6.4716 48.4137 7.05281 48.0455 7.34342V7.3546Z" fill="#1A0F2E"/>
<path d="M26.5367 54.0422C27.5853 49.9513 29.6492 46.1175 32.0366 42.6302C32.9403 39.9365 32.3601 37.0415 32.9849 34.1913C34.2009 26.6802 40.4037 21.3375 46.6622 17.8614C46.8073 17.7831 46.9523 17.9843 46.8184 18.0961C41.5751 22.5446 35.997 27.5073 34.7252 34.5155C34.1005 37.321 34.6025 40.4953 33.3977 43.2785L32.9737 43.9379C30.4859 47.0564 28.4221 50.4207 26.8044 54.1427C26.7486 54.2992 26.4921 54.221 26.5367 54.0533V54.0422Z" fill="#4C1D95"/>
<path d="M73.0684 23.5281C75.1323 25.9312 76.2033 29.2508 75.9021 32.5146C75.7459 33.4982 75.5228 34.3588 75.6901 35.3201C75.8798 36.4602 76.6049 37.522 77.4305 38.5615C81.0897 42.6076 83.689 47.9951 83.8229 53.5502C83.8229 53.7178 83.5775 53.7625 83.544 53.5837C82.7073 48.0957 80.1749 43.4459 76.326 39.4668C74.9203 37.9356 73.6374 35.566 74.1952 33.297L74.3402 32.3357C74.541 29.4185 73.4812 26.6801 72.823 23.651C72.7895 23.5169 72.9792 23.4163 73.0684 23.5281Z" fill="#4C1D95"/>
<path d="M17.2098 100.472C16.8751 105.759 16.6408 111.158 18.3812 116.165C19.5749 119.541 21.8507 122.536 22.5759 126.18C22.9886 128.047 22.9886 129.991 22.6874 131.825C22.0181 135.189 23.089 138.743 25.2199 141.593C25.3314 141.705 25.1418 141.918 25.019 141.783C22.3416 139.246 20.7463 135.357 21.2371 131.646C21.6164 128.103 20.6235 124.895 18.9278 121.787C17.1652 118.635 15.7037 114.936 15.6368 111.258C15.4694 107.559 15.9715 103.915 16.9309 100.416C16.9755 100.26 17.2321 100.293 17.2098 100.472Z" fill="#4C1D95"/>
<path d="M35.8853 131.579C36.577 136.15 36.51 140.979 38.4958 145.159C39.4776 146.444 40.5597 147.808 41.0617 149.485C41.9654 152.178 40.7494 154.771 40.8832 157.353C40.9278 158.549 41.3072 159.734 41.7422 160.952C41.7645 161.031 41.7422 161.109 41.653 161.131C40.6266 160.371 40.013 158.874 39.6003 157.555C38.8974 155.096 39.8457 152.435 38.9644 150.155C38.507 148.736 37.4472 147.629 36.577 146.31C36.0303 145.371 35.6956 144.31 35.4948 143.281C34.7474 139.38 34.9147 135.412 35.5952 131.545C35.6176 131.4 35.863 131.4 35.8741 131.556L35.8853 131.579Z" fill="#4C1D95"/>
<path d="M61.2317 162.238C62.325 159.891 62.7043 157.32 62.6039 154.771L62.5146 153.497C62.2357 151.161 63.0278 148.758 64.3331 146.88C65.2925 145.405 66.1515 143.997 66.6089 142.287C66.6424 142.13 66.8878 142.164 66.8878 142.32C67.0886 145.874 63.9649 148.736 63.9203 152.167C64.0876 155.71 63.8311 159.578 61.4548 162.417C61.3544 162.551 61.1313 162.406 61.2317 162.249V162.238Z" fill="#4C1D95"/>
<path d="M88.3967 33.6772C88.1847 33.0959 87.5488 32.7942 86.9687 33.0065C85.6188 33.4983 84.1908 34.1242 82.7071 34.8508C81.9261 33.6436 81.3014 32.7606 81.2456 32.6824C80.8886 32.1794 80.1969 32.0565 79.6949 32.4141C79.1929 32.7718 79.0702 33.4648 79.4272 33.9678C79.4383 33.9901 79.9961 34.7725 80.7101 35.8679C79.6838 36.4156 78.6351 36.9968 77.5976 37.6116C76.6493 36.0914 75.8795 34.9178 75.8014 34.8061C75.4556 34.2919 74.7639 34.1466 74.2507 34.4931C73.7376 34.8284 73.5925 35.5326 73.9384 36.0467C73.9607 36.0691 74.7305 37.2427 75.6676 38.7628C73.8714 39.8582 72.1088 40.9983 70.4131 42.1272C69.3198 40.35 68.3715 38.9081 68.2934 38.7852C67.9587 38.271 67.2559 38.1257 66.7427 38.4722C66.2295 38.8075 66.0845 39.5117 66.4303 40.0258C66.4527 40.0594 67.4455 41.5683 68.5611 43.379C67.0885 44.3961 65.694 45.3797 64.4446 46.2851C63.3959 44.5862 62.4922 43.2225 62.4141 43.0996C62.0795 42.5854 61.3766 42.4401 60.8635 42.7866C60.3503 43.1219 60.2052 43.8261 60.5511 44.3403C60.5734 44.3738 61.5328 45.8268 62.6261 47.6152C60.1048 49.4818 58.4426 50.8007 58.2306 50.9684C57.7509 51.3484 57.6617 52.0526 58.0521 52.5444C58.2752 52.8238 58.5988 52.9691 58.9223 52.9691C59.1677 52.9691 59.4132 52.8909 59.614 52.7232C59.6698 52.6785 61.2762 51.4043 63.7863 49.5489C64.4892 50.756 65.1251 51.9296 65.4932 52.7903C65.6717 53.215 66.0845 53.4721 66.5196 53.4721C66.6646 53.4721 66.8096 53.4385 66.9547 53.3827C67.5236 53.1479 67.7914 52.4885 67.5459 51.9184C67.122 50.9237 66.3857 49.5712 65.5936 48.2188C66.8431 47.3134 68.2265 46.3298 69.6991 45.3127C70.3796 46.4863 71.0043 47.6376 71.3502 48.4647C71.5287 48.8894 71.9414 49.1465 72.3765 49.1465C72.5216 49.1465 72.6666 49.1129 72.8116 49.0571C73.3806 48.8223 73.6483 48.1629 73.4029 47.5928C73.0013 46.6316 72.2984 45.3462 71.5398 44.0497C73.2355 42.9096 75.0094 41.7695 76.8055 40.6741C77.631 42.0713 78.4231 43.502 78.8471 44.4856C79.0255 44.9103 79.4383 45.1674 79.8734 45.1674C80.0184 45.1674 80.1635 45.1338 80.3085 45.078C80.8775 44.8432 81.1452 44.1838 80.8998 43.6137C80.4424 42.5184 79.5945 40.9983 78.7243 39.5229C79.7842 38.9081 80.8328 38.3157 81.8703 37.768C82.5174 38.8522 83.1533 39.9811 83.5438 40.9088C83.7223 41.3336 84.135 41.5907 84.5701 41.5907C84.7151 41.5907 84.8602 41.5571 85.0052 41.5012C85.5742 41.2665 85.8419 40.6071 85.5965 40.037C85.1725 39.0422 84.5367 37.8686 83.8673 36.7509C85.1949 36.1026 86.489 35.5438 87.6938 35.1078C88.2739 34.8955 88.5752 34.2584 88.3632 33.6772H88.3967Z" fill="#1A0F2E"/>
<path d="M77.386 156.56C82.4063 151.072 82.2166 144.991 82.2947 138.006C82.317 133.456 82.4509 128.438 85.106 124.47C85.6304 123.598 86.4782 122.547 87.0472 121.698C90.0035 116.981 90.0259 111.404 90.3605 105.815C90.394 105.178 91.398 105.178 91.3869 105.849C91.755 113.013 91.5208 119.664 86.7683 125.498C85.6415 127.309 85.0056 129.321 84.6598 131.444C83.4995 140.319 85.7196 150.412 78.1446 157.242C77.6984 157.689 76.9732 157.074 77.3749 156.56H77.386Z" fill="#4C1D95"/>
<path d="M80.7439 142.946C78.5573 142.745 77.9325 141.549 77.3747 140.499C77.1293 140.04 76.895 139.593 76.538 139.224C71.8971 134.396 75.5005 127.678 77.2855 125.51C78.535 123.945 79.6506 123.274 81.0005 123.274C81.614 123.274 82.2388 123.409 82.897 123.554C83.5552 123.699 84.2915 123.856 85.1505 123.912C88.3858 124.102 88.4639 125.923 88.542 127.868C88.5643 128.293 88.5754 128.751 88.6312 129.243C90.3716 132.227 89.5349 133.815 88.9882 134.876C88.7651 135.301 88.5977 135.625 88.6312 135.916C88.9101 138.062 88.3858 141.404 86.3777 142.13C85.9984 142.265 85.6414 142.332 85.3179 142.332C84.7824 142.332 84.4142 142.153 84.1242 142.008C83.8899 141.896 83.7449 141.829 83.5664 141.829C83.5217 141.829 83.4771 141.829 83.4213 141.84C83.0643 142.142 82.038 142.946 80.9447 142.946C80.9447 142.946 80.8108 142.946 80.755 142.946H80.7439Z" fill="#2FB9A1"/>
<path d="M81.0005 123.833C82.1495 123.833 83.3655 124.37 85.1171 124.47C88.5197 124.671 87.7722 126.639 88.0957 129.422C90.5166 133.479 87.8949 134.519 88.0957 135.983C88.3412 137.861 87.8949 140.99 86.1992 141.605C85.8534 141.728 85.5745 141.784 85.329 141.784C84.5481 141.784 84.2246 141.281 83.5664 141.281C83.4436 141.281 83.3098 141.303 83.1536 141.337C83.1536 141.337 82.038 142.398 80.9447 142.398C80.9 142.398 80.8443 142.398 80.7996 142.398C78.0329 142.141 78.2338 140.185 76.9396 138.844C72.6892 134.407 75.8575 128.136 77.7094 125.867C78.9812 124.28 79.9629 123.844 81.0005 123.844M81.0005 122.715C79.4721 122.715 78.1891 123.464 76.8392 125.163C74.9762 127.443 71.2166 134.485 76.1364 139.615C76.4376 139.928 76.6496 140.331 76.8727 140.755C77.4305 141.817 78.2114 143.281 80.6881 143.505C80.7662 143.505 80.8554 143.505 80.9335 143.505C82.0603 143.505 83.109 142.79 83.611 142.387C83.6668 142.41 83.756 142.443 83.8676 142.499C84.1799 142.656 84.6485 142.879 85.3067 142.879C85.6972 142.879 86.1099 142.801 86.5562 142.644C88.9882 141.773 89.4568 138.006 89.1779 135.837C89.1667 135.726 89.334 135.39 89.4679 135.133C90.0369 134.049 90.974 132.25 89.1555 129.064C89.1109 128.639 89.0998 128.237 89.0775 127.846C88.9994 125.946 88.899 123.576 85.1617 123.364C84.3473 123.319 83.6556 123.162 82.9974 123.017C82.3169 122.872 81.6587 122.727 80.9893 122.727L81.0005 122.715Z" fill="#1A0F2E"/>
<path d="M82.9945 132.609C83.4109 130.83 83.2914 129.28 82.7276 129.148C82.1637 129.015 81.369 130.35 80.9525 132.129C80.5361 133.908 80.6556 135.458 81.2194 135.59C81.7833 135.723 82.578 134.388 82.9945 132.609Z" fill="#1A0F2E"/>
<path d="M106.403 130.394C106.403 130.394 106.381 130.394 106.358 130.394C106.247 130.394 105.968 130.449 105.522 130.718C104.35 131.433 103.067 133.02 102.822 134.932C102.543 137.089 103.056 138.128 103.636 138.374C104.049 138.553 104.562 138.385 104.919 137.949C105.801 136.888 106.124 135.803 106.325 134.898C106.682 133.244 106.793 130.718 106.403 130.394Z" fill="#2FB9A1"/>
<path d="M108.378 91.9664L107.82 91.7987C105.109 90.9716 103.547 87.9649 103.547 83.5611C103.547 79.4478 106.08 76.5194 109.839 76.2847C109.94 76.2847 110.029 76.2847 110.129 76.2847H110.363L110.609 76.4747C110.955 76.8547 111.111 77.2794 111.1 77.7377C111.055 79.0566 109.995 79.6602 109.069 80.1967C108.155 80.722 107.362 81.1803 107.24 82.2086C107.084 83.5164 108.735 84.6564 110.062 85.573C111.2 86.3554 112.015 86.9254 111.936 87.7078C111.825 88.7138 111.044 89.105 110.352 89.4627C109.571 89.8539 108.835 90.2339 108.534 91.4075L108.389 91.9775L108.378 91.9664ZM109.906 77.4024C106.727 77.6036 104.663 80.0179 104.663 83.5611C104.663 85.2935 104.964 89.2838 107.641 90.5357C108.155 89.3174 109.114 88.8256 109.839 88.4679C110.52 88.1214 110.776 87.9537 110.821 87.5849C110.743 87.4172 109.984 86.8807 109.426 86.5007C107.943 85.4724 105.901 84.064 106.135 82.0857C106.325 80.4985 107.541 79.8055 108.512 79.2355C109.404 78.7213 109.951 78.3748 109.984 77.7042C109.984 77.5924 109.962 77.503 109.906 77.4024Z" fill="#1A0F2E"/>
<path d="M103.982 139.526C103.714 139.526 103.458 139.47 103.201 139.369C102.621 139.112 101.305 138.162 101.751 134.786C102.074 132.339 103.781 130.405 105.22 129.645C105.89 129.287 106.47 129.22 106.894 129.432C108.422 130.215 107.385 135.088 107.373 135.133C107.161 136.116 106.782 137.402 105.745 138.654C105.276 139.224 104.618 139.537 103.982 139.537V139.526ZM106.358 130.383C106.247 130.383 105.968 130.438 105.522 130.707C104.35 131.422 103.067 133.009 102.822 134.92C102.543 137.078 103.056 138.117 103.636 138.363C104.049 138.542 104.562 138.374 104.919 137.938C105.8 136.877 106.124 135.792 106.325 134.887C106.682 133.233 106.793 130.707 106.403 130.383C106.403 130.383 106.381 130.383 106.358 130.383Z" fill="#1A0F2E"/>
</svg>
