<svg width="47" height="44" viewBox="0 0 47 44" fill="none" xmlns="http://www.w3.org/2000/svg">
<path d="M41.1119 19.2748C40.7787 18.984 39.9619 17.4765 39.2955 16.2705C36.7913 11.6941 32.6213 4.04877 25.3989 3.32731C16.9083 1.80902 5.69849 0.0323004 5.58026 0.0215324C5.48354 0.0107644 5.38682 0 5.29009 0C4.73121 0 4.20457 0.258434 3.8499 0.699923C3.75317 0.818371 3.65644 0.947586 3.54897 1.0768C1.77561 3.29501 -1.92156 7.91449 1.22749 16.1843C1.45319 16.7766 1.96907 17.2073 2.59243 17.3257L13.9204 19.4901C13.7915 20.1254 13.6947 20.8577 13.6517 21.6114C12.405 22.8605 10.0728 25.8432 10.8036 30.1505C11.4915 34.1992 14.6083 35.6421 17.2844 35.6421C17.6176 35.6421 17.8755 35.6206 18.0368 35.5991C19.3265 35.5668 20.4765 35.0391 21.39 34.0485C22.54 32.8102 23.1849 30.9365 23.1419 28.9767C23.8835 29.0306 24.9475 29.7951 25.055 31.7549C25.1302 33.2409 24.969 34.5976 24.8185 35.7929C24.4961 38.4741 24.0877 41.823 28.2577 43.3305C28.9886 43.5997 29.7302 43.7289 30.4502 43.7289C32.3741 43.7289 34.2119 42.7813 35.6306 41.0585C35.7488 40.9077 35.8778 40.757 35.9853 40.5954C36.7806 41.1984 37.8231 41.6076 39.1558 41.6076C39.8329 41.6076 40.5637 41.5 41.3161 41.2738C44.9918 40.197 45.3357 35.556 45.3357 33.9193C46.26 31.9487 48.8287 24.8634 41.0796 19.2748H41.1119ZM44.046 32.3687C43.5086 25.5094 39.6932 24.8741 39.4997 24.8418C39.1881 24.7988 38.9409 25.0033 38.8979 25.2941C38.8549 25.5848 39.0591 25.854 39.3493 25.9079C39.3923 25.9079 44.089 26.8016 42.8208 37.4835C42.8208 37.5158 42.8208 37.5481 42.8208 37.5696C42.4231 38.4526 41.7997 39.2171 40.8217 39.5079C40.1983 39.6909 39.661 39.7663 39.1773 39.7663C37.6404 39.7663 36.7591 38.9695 36.2647 38.2049C36.6409 31.1949 35.6628 28.8045 33.4918 26.4678C33.2876 26.2524 32.9544 26.2417 32.7287 26.4355C32.5138 26.6401 32.503 26.9739 32.6965 27.2C34.6848 29.3428 35.5661 31.5718 35.1684 38.4095C34.3839 40.0032 32.7395 41.8876 30.4502 41.8876C29.9559 41.8876 29.4292 41.8015 28.8811 41.5969C24.7863 40.1109 27.14 36.8805 26.882 31.6472C26.7208 28.4706 24.6358 27.1246 23.0666 27.1246C22.0456 27.1246 21.2395 27.6846 21.3148 28.686C21.4867 31.2165 20.1863 33.747 17.9185 33.747C17.9185 33.747 17.6713 33.7793 17.2952 33.7793C16.027 33.7793 13.2111 33.3701 12.6092 29.8166C11.8246 25.1972 15.4788 22.3975 15.4788 22.3975C15.4788 22.2898 15.4788 22.1714 15.4788 22.0637C15.7798 19.0809 18.1442 16.6474 20.1648 14.5799C20.3582 14.4184 20.1003 14.1276 19.9176 14.2892C18.6064 15.4521 16.1774 18.0472 16.1774 18.0472L2.93636 15.5167C-0.0192339 7.75297 3.72094 3.82264 5.29009 1.81979C5.29009 1.81979 16.5643 3.60728 25.1409 5.13634C33.9432 5.94394 37.8554 19.1886 40.0371 20.75C45.9376 25.0033 44.8843 30.1289 44.046 32.3579V32.3687Z" fill="#1A0F2E"/>
<path d="M39.4996 24.8526C39.6931 24.8849 43.4977 25.5202 44.0459 32.3794C44.8949 30.1504 45.9375 25.0249 40.037 20.7715C37.8553 19.1994 33.9431 5.96546 25.1408 5.15786C16.5535 3.6288 5.28999 1.84131 5.28999 1.84131C3.72083 3.84416 -0.0193378 7.77449 2.93626 15.5382L16.1773 18.0687C16.1773 18.0687 18.6063 15.4736 19.9175 14.3107C20.1002 14.1492 20.3581 14.4399 20.1647 14.6014C18.1441 16.6689 15.7797 19.1024 15.4787 22.0852C15.4787 22.1929 15.4787 22.3113 15.4787 22.419C15.4787 22.419 11.8245 25.2079 12.6091 29.8382C13.211 33.3916 16.0269 33.8008 17.2951 33.8008C17.682 33.8008 17.9184 33.7685 17.9184 33.7685C20.1862 33.7685 21.4866 31.238 21.3147 28.7075C21.2502 27.7169 22.0563 27.1462 23.0665 27.1462C24.6357 27.1462 26.7207 28.4922 26.8819 31.6687C27.1399 36.902 24.7969 40.1324 28.881 41.6184C29.4291 41.823 29.9557 41.9091 30.4501 41.9091C32.7394 41.9091 34.3838 40.0247 35.1683 38.431C35.566 31.5934 34.6847 29.3644 32.6964 27.2215C32.4922 27.0062 32.5029 26.6616 32.7286 26.457C32.9436 26.2524 33.2875 26.2632 33.4917 26.4893C35.6627 28.826 36.6408 31.2165 36.2646 38.2264C36.759 38.991 37.6403 39.7878 39.1772 39.7878C39.6609 39.7878 40.209 39.7124 40.8216 39.5294C41.7996 39.2386 42.423 38.4849 42.8207 37.5911C42.8207 37.5588 42.8099 37.5265 42.8207 37.505C44.0781 26.8231 39.3922 25.9294 39.3492 25.9294C39.059 25.8863 38.8548 25.6063 38.8978 25.3156C38.9408 25.0249 39.1987 24.8203 39.4996 24.8633V24.8526Z" fill="#7C3AED"/>
<path d="M2.94699 15.5275L7.07407 16.3136C7.07407 16.3136 5.70913 13.7831 5.95632 9.21743C6.20352 4.65179 9.41705 2.48742 9.41705 2.48742C6.93435 2.089 5.31146 1.83057 5.31146 1.83057C3.74231 3.83342 0.00214948 7.76375 2.95774 15.5275H2.94699Z" fill="#7C3AED"/>
</svg>
